<svg xmlns="http://www.w3.org/2000/svg" viewBox="0 0 296.2 48.98"><defs><style>.cls-1{fill:#00b9ee;}.cls-2{fill:#fff;}.cls-3{fill:#103578;}</style></defs><title>Fichier 1</title><g id="Calque_2" data-name="Calque 2"><g id="Calque_1-2" data-name="Calque 1"><path class="cls-1" d="M59.82,21.77A21.77,21.77,0,1,1,38.05,0,21.77,21.77,0,0,1,59.82,21.77Z"/><path class="cls-2" d="M24.71,5.63c.6-.33-.11-.59.81-.54.87-.11.81.11.27.27,1.14,0-.81.38-.27,1.14.17.48.33.59.11.86.43.06.81.65-1.08,1-.33.11-1.52,0,.21-.32-1.4,0,.49-.17.33-1.14C25,6.55,24.17,5.9,24.71,5.63Z"/><path class="cls-2" d="M37.79,33.22c.25.18-.18.2,0,.42-.69.92-.51.78-.38.84-.19.4.12.16.08.42-.27.14-.06.33.06.49s.14,0,.44.2c.17,0,0-.28.27-.28.2.24.41-.42.84-1.19.81-1.52.35-1.33.66-1.77.22-.27-.06-.21,0-.23.27.08.36-.3.32-1.3-.18.19-.16.15-.2,0,.2-.44-.55.21-.18.21,0,.16-.16,0-.35.26-.26,0,0,.17-.28.31-.14.36-.45.22-.41.44-.32-.08-.24,0-.42.1-.41,0-.08.14-.43.39C37.65,33.24,38,33.08,37.79,33.22Z"/><path class="cls-2" d="M52.32,28.78c-.49-.76.59.33.75-1.19-.8-.86-.32.38-1.13-.65.16-.65-.27-.65-.94-.69,0-.31-.12-.64-.36-.66-.16.23-.39-.66-.92-.6-.68-1-.68-.21-1.21-.74-.18-.15.08.41.61.89.46.66.79.24,1,1.18C52.1,27.81,49.94,26.94,52.32,28.78Z"/><path class="cls-2" d="M24.28,6.77c-.71.05-1,.37-.81.69.1.49-.92,1,.43.44.49-.11.27-.65.54-.7S24.76,6.55,24.28,6.77Z"/><path class="cls-2" d="M49.57,34.52c.35.7.71.82.65,1.07s.18.33-.07.33.24.21.38.48c.22.1.32-.27.42,0,.19,0,.18-.28.34-.18s.09-.14.58,0c.88.16.61-.64.87-.52s.15-.46.5-.16a2.94,2.94,0,0,1,.74-.1l.18.06c0-.12,3.6-4.87,2.11-4.71-.45-.3-.56-.35-.66-.28s.12-.23-.33-.3c0-.1.16-.49.22-.33s.45,0,.11-.05-.4-.18-.09-.15,0-.28.16-.26-.11-.37-.25-.1a1.13,1.13,0,0,1-1-.28c-.35-.14-.45.17-.11.19.54.26-.83-.33-.78,1-.45-.26-.31.3-.58-.09.24-.09-.27-.47-.52-.09-.8.53-.25.55-.74.56,0,.18-.09.18-.16.06s-.38.36-.22.47c-.32.28-.18.61-.4.58-.58,0-.38.26-1.06.24-.19,0-.69.27-.67.5-.09,0-.25-.16-.13.15-.21.49.2.69.11.74.16,0-.13.21,0,.3,0,.27.27.37.5.85"/><path class="cls-2" d="M58.41,25.3c-.83-.45.42-1.14-.51-2.22-.32-.25-.45-.29-.4-1.36-.37.06.06-.58-.75-1.1.08-.21-.49-1-.59-.64-.82.89-.61-.27-1.08-.64-.93-.87-1.26-1.62-1.66-1.62,0,.77-.51.08-1.08.54.31.33-.16.31-1.07,1.55.18.52-.92.07-.41,1.2.08,1.76-.18,1-.28,1.56-.06.22-.49.74-.61.43-.68-.49-.49-.73-.84-1.36-3-4.69-.71-1.76-1.88-3.66.13.9-1.63,0-1.21-.06,1-.28.11-.09-1-.74-.44-.1.31-.5-.65-.27-2.2-.08-2.53.32-2.93-.69-.06,0-.19-.18-.58.23-.86,0-.36-.37-1.24-.48-.52-1.29-1.29-.52-.83-.12,1.13,1,.06.69.69,1.15,1.17,1.15,1.84-.78,2.31.18.57.67.55-.12,1.2.9-.31.13.06.15-.5.61-.36.15.44.27-1.13,1.34-.92,0-.71.6-1.51.77-.54.25-.23.34-.64.34-.28.27-.57,0-.9.39-1.22.15-.53-.71-1.13-1.65-.86-.77-.38-.92-.82-1-.56-.67-.61-.63-.42-.92-.6-1-.75-.46-.73-.92l-.75-1c.1-1.07-.1-.09-.29,0-.65-.51,0-.21-.23-.44s-.3-.21-.19.19c.79.85-.09.48,1,1.73-.13.54.59.21.75,2,.75.12.42.66,1,1.29.29,0,1.58.88,1.08,1.05.3.25,0,.58.67.5A11.76,11.76,0,0,1,40,22.06c.42-.3.58-.09.37.41,0,.3-.25.5-.21.76-.4.36-.19.78-.39,1-.27.79-.21.41-.79,1.18a13.92,13.92,0,0,0-2.37,2.25,1.89,1.89,0,0,0-.32,1c.49.21-.08,1.28.25,1.26s.38.43.25,1.28c-.33.25.22.12,0,.65-.2.12,0,.32-.87.71s-.55.51-.76.55c-.91.42-.65,1.17-.55,1.23.39-.35.2,1.27-.63,1.08-.51,0,0,.44-.14.57s-.13.86-.46.81-.14.49-1.05,1a1.8,1.8,0,0,1-1.5.78c-.78-.2-.51.19-.87.13s-.1.22-.56,0c0-.39-.43,0-.47-.61.44-.29-.06-.29,0-.49-.52-.49-.17-.61-.44-.83-.93-.83-.72-2.29-.89-2.37-.51-.39-.17-.62-.72-1.2-.65-1.52.3-2,.36-2.44.19-1-.5,0-.15-1.09.09-.24-.59-1.4-.84-1.69-.39-.58-.86.1-.7-1.31,0-.84.57-1.4.09-1.51-.25-.27-.41-.46-.68-.19s-.92-.38-.84-.49-.35-.16-.32-.27a4.07,4.07,0,0,1-1.22.14c-.74,1.22-2.85,2-3.72-.24-.48-.71-1.73-1.46-1.13-2.49,1.13-.76,0-1.3.7-1.68-.6,0-.38-.42,0-.8,1.12-.84.71-1,1.65-1.92,1.11-1.57,0-.79,1.06-2.36.42-.6,0-.81.7-1a4.11,4.11,0,0,0,2.25-.41c.32-.27.73-.19,1.88-.18.5-.3.67,0,.86-.13.08.8-.44.5-.36,1.34.32.27-.08,1.09.34.79.54-1,1.34-1.13,1.88-.16.92-.09.29.37.88.22.48-.39-.3-1.1,1.19-.83,3.7,1,1.06.23,2.61.31.46-.08.21.46.86-.14.81-2.72-.15-1.38-.63-1.53-.65-.62-.27.11-.77,0-.17-.25-.42-.29-.63,0,.17-.66-.79-1-.46-1.34.5-.33-.33-.62-.62-.16-.3.21.37.46,0,.88-.67.46.08.62-.63.46-.13-.34-.71-.38-.34-.55s-.37-.67-.33-1.38c-1.12-.51-2.09-1.86-1.5-.48,1.85,1.93,1.85,1.09.39,1.28-2.47-2.66-1-.55-2.7-1-2.69,1.81-.88,1.75-2.12,2.21-1,.09-1.38,1.06-1.33.09-.46-1.17.38-1.17.11-1.93-.46-1.29,2.6.55,2-1.62,0-.53-1.19-.24-.16-.78,1.19-.87.9-.11,1.49-.56l1.15-1.05.59,0c.23-.08,0-1.75.69-1,.19.21,0,.23-.08.5-.42.52.58,0,.81.36,1.21-1,.46.52,1.9-.88,3.43-2.4,0-.27.23-1.21-.62-.32-.37-.78.46-1.66l-.6-.08-.48.76c-1.26.75.35,1-.51,1.19s.09,1.78-.94.81c-.27-.29,0,.82-.54-.16,0-1.24-.44.31-1.05-.11,0-.19-.35-.08-.16-.33s-.06-.57.6-1.07c1.13-.67,3.29-3.3,4.58-2.59.9.67,2,.23,2.18,1.15,1,.17.37-.21.33-.52-.21-.21.23-.34.4.1,0,.77,1.29-.88,1.27-.27s1.09-.63,1.74-.31c.73.16-.23-.36.08-.55,0-.63,0-.71.52-.21,1.76,1.69.55,1.3,1.24,1.48s-.09-.52.12-.58c.42-.14.69.63.92.42C56.19,2.3,59.67,20.74,58.79,23.14Zm-33.6-6.87h-.56c.06-.25-.11-.25-.2-.14.11.26-.26,0,.09.42.24,0,.59-.06.61-.15.19-.2.24,0,.36,0-.12.07-.08.1.09.25.55.16.62-.37.88-.31s.18-.13.5.12a1.55,1.55,0,0,0,1.09,0c0-.2-.07-.18-.06-.32-.56-.56.36.38-.89-.64.49-.47-.16-.14.24-.44-.12-.09-.5.08-.65.29s.45.09.21.24c-.29-.07-.24.23-.44.16a.86.86,0,0,0-.5-.5c-.39.25,0,.15-.23.4-.35.31-.54.17-.76.32Zm4.68-.85c.13-.12.3.19.3,0-.2-.08,0-.25-.29-.42-.82,0-.51.44-.79.36-.37.43.14.26.06.7.54.79,1,.47.45,1.05.07.65.21.21.48.64.14-.13.27.19.44-.07.2,0,.38,0,.15-.33-.12-.55-.58-.55-.32-.7.64.23.06-.48,0-.3s0,.17-.18,0c.24-.38-.17,0-.39-.62C29.35,17.76,29.53,17.68,29.49,17.58Zm1.29.06c.25.07-.19.29.36.39.21,0,.17-.3.26-.38-.44-.27,0-.09-.19-.36s-.27.08-.27.08S30.75,17.54,30.78,17.64Z"/><path class="cls-3" d="M65.16,19.3A27.08,27.08,0,0,0,59,4.43l-2.43,5.91a21.87,21.87,0,0,1,2.05,4.31l-34.5,3.4L27.39,23l32.35-3.15v0Z"/><path class="cls-3" d="M53.3,32.36a1.84,1.84,0,1,0-2-1.64A1.83,1.83,0,0,0,53.3,32.36Z"/><path class="cls-3" d="M59.82,22.29a21.77,21.77,0,0,1-43.41,1.77l8.29-.81L21.61,18.3,11,19.39h0c-.06.78-.1,1.57-.1,2.38a27.21,27.21,0,0,0,54.42,0Z"/><path class="cls-3" d="M3.17,6.07h2a2.68,2.68,0,0,1,1.53.29,1.66,1.66,0,0,1,.66,1.41c0,1.34-.92,2.08-2.72,2.08-1.3,0-1.44-.26-1.44-1.37ZM0,10.82H5.16c1.74,0,2.9-.16,3.69-1.09A2.59,2.59,0,0,0,9.48,8,2.4,2.4,0,0,0,7.22,5.53C8.41,5.09,9,4.41,9,3.38A2.09,2.09,0,0,0,7.77,1.5a6.15,6.15,0,0,0-2.85-.43H0V2c1.07.13,1.16.51,1.16,1.53V8.4c0,1-.09,1.42-1.16,1.55ZM3.17,5.11V3.43c0-1.19.24-1.36,1.73-1.36s2.17.47,2.17,1.49c0,1.17-.85,1.55-2.51,1.55Z"/><path class="cls-3" d="M11,10c1.07-.13,1.16-.52,1.16-1.55V3.48c0-1-.09-1.4-1.16-1.53V1.07h7.67l1.34,2.81-.75.39a4.52,4.52,0,0,0-3.91-2.16c-1,0-1.18.23-1.18,1.27V5a6.36,6.36,0,0,0,.72,0c1.09,0,1.43-.45,1.49-1.78h.75V7.84h-.78C16.31,6.51,15.83,6,14.56,6h-.35V8.58c0,1,.27,1.29,1.33,1.29,1.74,0,2.92-.83,4.18-2.71l.81.33L19,10.82H11Z"/><path class="cls-3" d="M25.33,6.22l1.48-3.6,1.36,3.6Zm-3.76,4.6h3.71V10c-.77-.15-1.09-.28-1.09-.73a2,2,0,0,1,.17-.61l.57-1.4h3.6l.65,1.68a1.57,1.57,0,0,1,.12.49q0,.57-1,.57h-.2v.85h4.47v-1a1.24,1.24,0,0,1-1.31-.93L28,1.07H26.29L23,8.74c-.32.73-.61,1.1-1.39,1.21Z"/><path class="cls-3" d="M96.19,34.83V33.4c0-.18,0-.56.15-.68a2.42,2.42,0,0,1,.91-.12c.81,0,1.8.2,1.8,1.16s-1.15,1.07-1.89,1.07Zm1.74,5.24a4.89,4.89,0,0,0,2.72-.51,2.4,2.4,0,0,0,1.09-2.06,2.14,2.14,0,0,0-1.68-2.09v0a2,2,0,0,0,1.28-1.79,2.06,2.06,0,0,0-1.14-1.83,6.19,6.19,0,0,0-2.54-.39H92.74v1.05l.31,0c.86.14.78.51.78,1.2v4.1c0,1,0,1.08-1.09,1.25v1ZM96.19,36h1c1.09,0,2,.12,2,1.4,0,1.1-.88,1.43-1.91,1.43a1.89,1.89,0,0,1-1-.19c-.17-.14-.15-.42-.15-.63Z"/><path class="cls-3" d="M106.88,38.32a1.65,1.65,0,0,1-1.1.45.63.63,0,0,1-.63-.66c0-.75,1.12-1,1.73-1.06Zm2.75.32a1,1,0,0,1-.37.2c-.26,0-.23-.43-.23-.59V35.76a1.79,1.79,0,0,0-.86-1.85,4.12,4.12,0,0,0-2-.42,4.29,4.29,0,0,0-2.06.42,1.65,1.65,0,0,0-.94,1.38,1,1,0,0,0,1,.93,1.1,1.1,0,0,0,.86-.38,1.08,1.08,0,0,0,.16-.63.4.4,0,0,1,.13-.37,1.15,1.15,0,0,1,.69-.18c.22,0,.63.06.76.25a1.58,1.58,0,0,1,.11.78V36c-1.48.14-4,.52-4,2.37,0,1.18,1,1.78,2.14,1.78a3.81,3.81,0,0,0,2.15-.66,1.94,1.94,0,0,0,1.48.66,2.6,2.6,0,0,0,1.72-.66Z"/><path class="cls-3" d="M114.22,38c0,.76.14.84.64,1h.1v1h-4V39c1-.1,1-.34,1-1.21V36.24c0-.85,0-1.1-.93-1.2H111V34l2.38-.33H114v.54a4.16,4.16,0,0,1,2.24-.71,2.43,2.43,0,0,1,1.66.6,1.93,1.93,0,0,1,.55,1.64v2.09a2.66,2.66,0,0,0,0,.75c.09.31.33.34.62.4l.24.05v1h-3.89V39c.76-.13.74-.36.74-.94V35.89c0-.42,0-1-.62-1a2.27,2.27,0,0,0-1.39.66Z"/><path class="cls-3" d="M125.23,38.54a1.91,1.91,0,0,1-1,.39c-1.07,0-1.31-1.17-1.31-2s.22-2.08,1.39-2.08a1.38,1.38,0,0,1,1,.39Zm.44-4.45a3.68,3.68,0,0,0-1.9-.6,3.43,3.43,0,0,0-2.33,5.7,3.25,3.25,0,0,0,2.32,1,2.23,2.23,0,0,0,1.45-.42h0v.78c0,.92,0,1.15-1,1.2h-.12v1.05h4.49V41.73h-.17c-1,0-1-.35-1-1.19V33.66h-1.52Z"/><path class="cls-3" d="M132.4,37.72c0,.48-.07,1.16.52,1.16a2.88,2.88,0,0,0,1.5-.57V36.24c0-.85,0-1.1-.9-1.2h-.09V34l2.38-.33h.84v4.15c0,.84,0,1.12.82,1.2h.1v1h-2.9v-.51a4.62,4.62,0,0,1-2.3.61,2.21,2.21,0,0,1-1.71-.55,2.46,2.46,0,0,1-.49-1.88v-1.5c0-.85,0-1.1-.94-1.2h-.09V34l2.38-.33h.88Z"/><path class="cls-3" d="M141,35.67a1,1,0,0,1,1-.92.9.9,0,0,1,.94.92Zm4.26,1v-.27c.07-1.86-1.37-3-3.23-3a3.28,3.28,0,0,0-3.52,3.3,3.35,3.35,0,0,0,3.62,3.38,3.54,3.54,0,0,0,3.29-1.93l-1.12-.53a2.16,2.16,0,0,1-1.75,1.17c-1.16,0-1.62-.94-1.62-2.16Z"/><path class="cls-3" d="M157.65,37.36h-1a2.26,2.26,0,0,0-.35-1.07c-.24-.35-.79-.32-1.17-.32h-.22v1.34a7.5,7.5,0,0,0,.06,1.26c.12.32.7.32,1,.32a4.55,4.55,0,0,0,4-2.27l.94.43-1.47,3h-7.94V39l.22,0c.82-.14.85-.42.85-1.21v-4.1c0-.7.09-1.06-.77-1.2l-.3,0V31.37h7.71L160.48,34l-.91.42a4,4,0,0,0-3.37-1.89c-.26,0-1,0-1.19.23s-.14.83-.14,1.1v.92h.39c.36,0,.88.05,1.12-.27a2.21,2.21,0,0,0,.23-1.12h1Z"/><path class="cls-3" d="M169,34.7a5,5,0,0,0-2.13,1.14l-.83.72,1.33,1.59a2.63,2.63,0,0,0,1.73.87v1h-4.16V39c.16,0,.54,0,.54-.27s-.37-.56-.46-.67l-.28-.37-.35.3c-.09.09-.57.51-.55.76s.54.24.73.25v1H161.3V39a5.11,5.11,0,0,0,1.82-1.4l.88-.89-.8-1.06a2.47,2.47,0,0,0-1.63-1v-1h3.85v1c-.28,0-.59,0-.59.21a1.82,1.82,0,0,0,.32.56l.26.31.39-.34c.08-.07.42-.43.42-.57s-.33-.17-.42-.17v-1H169Z"/><path class="cls-3" d="M173.07,34.81v2.93c0,.43-.07,1,.53,1a2.29,2.29,0,0,0,1.17-.71l.8.91a3.62,3.62,0,0,1-2.86,1.2,1.84,1.84,0,0,1-1.5-.56,2.26,2.26,0,0,1-.37-1.66V34.81h-.93v-1a2.08,2.08,0,0,0,1.06-.47,2.25,2.25,0,0,0,.76-1.6l0-.1h1.31v2h1.86v1.15Z"/><path class="cls-3" d="M179,36.72c0,1.22.46,2.16,1.62,2.16a2.15,2.15,0,0,0,1.75-1.17l1.13.53a3.55,3.55,0,0,1-3.29,1.93,3.35,3.35,0,0,1-3.63-3.38,3.28,3.28,0,0,1,3.52-3.3c1.86,0,3.3,1.1,3.24,3v.27Zm2.05-1a.9.9,0,0,0-.94-.92,1,1,0,0,0-1,.92Zm-2.37-3.22L180,31.36a2.07,2.07,0,0,1,1.2-.63.94.94,0,0,1,1,.95c0,.66-.66.88-1.23,1l-2,.41Z"/><path class="cls-3" d="M187.57,34.26a3.23,3.23,0,0,1,1.74-.6,1.07,1.07,0,0,1,1.19,1,1,1,0,0,1-1.05,1c-.6,0-.79-.4-1.13-.4s-.4.08-.4.2v2.37c0,.84,0,1.13.84,1.2h.13v1h-4.27V39c1.07-.08,1.07-.32,1.07-1.2V36.24c0-.85,0-1.1-.94-1.2h-.09V34l2.38-.33h.53Z"/><path class="cls-3" d="M194.45,37.82c0,.83,0,1.09.91,1.2v1h-4.19V39c1.06-.09,1-.34,1-1.2V36.24c0-.85,0-1.1-.93-1.2h-.1V34l2.38-.33h.89Zm0-5.84a1.31,1.31,0,0,1-1.33,1.25,1.24,1.24,0,0,1-1.23-1.2,1.29,1.29,0,0,1,1.31-1.27A1.22,1.22,0,0,1,194.45,32Z"/><path class="cls-3" d="M198.93,36.72c0,1.22.45,2.16,1.61,2.16a2.15,2.15,0,0,0,1.75-1.17l1.13.53a3.55,3.55,0,0,1-3.29,1.93,3.34,3.34,0,0,1-3.62-3.38,3.27,3.27,0,0,1,3.51-3.3c1.86,0,3.3,1.1,3.24,3v.27Zm2-1a.9.9,0,0,0-.94-.92,1,1,0,0,0-1,.92Z"/><path class="cls-3" d="M207.8,37.72c0,.48-.06,1.16.52,1.16a2.84,2.84,0,0,0,1.5-.57V36.24c0-.85,0-1.1-.89-1.2h-.1V34l2.38-.33h.84v4.15c0,.84,0,1.12.82,1.2H213v1h-2.9v-.51a4.68,4.68,0,0,1-2.3.61,2.23,2.23,0,0,1-1.72-.55,2.5,2.5,0,0,1-.49-1.88v-1.5c0-.85,0-1.1-.94-1.2h-.09V34l2.38-.33h.88Z"/><path class="cls-3" d="M216.72,34.26a3.23,3.23,0,0,1,1.74-.6,1.07,1.07,0,0,1,1.19,1,1,1,0,0,1-1.06,1c-.6,0-.79-.4-1.12-.4s-.4.08-.4.2v2.37c0,.84,0,1.13.84,1.2H218v1h-4.26V39c1.07-.08,1.07-.32,1.07-1.2V36.24c0-.85,0-1.1-.94-1.2h-.09V34l2.38-.33h.53Z"/><path class="cls-3" d="M222.73,36.72c0,1.22.45,2.16,1.61,2.16a2.18,2.18,0,0,0,1.76-1.17l1.12.53a3.55,3.55,0,0,1-3.29,1.93,3.34,3.34,0,0,1-3.62-3.38,3.27,3.27,0,0,1,3.51-3.3c1.86,0,3.31,1.1,3.24,3v.27Zm2-1a.9.9,0,0,0-.93-.92,1,1,0,0,0-1.05.92Z"/><path class="cls-3" d="M238.07,38.27a1.52,1.52,0,0,1-1.24.61c-.89,0-1.15-1.2-1.15-1.85,0-.82.26-2.25,1.35-2.25a1.43,1.43,0,0,1,1,.56Zm2.24-7.46h-.72a7.6,7.6,0,0,1-2.57.56v1.05a1.63,1.63,0,0,1,.89.18c.19.14.16.65.16.86v.45a3.11,3.11,0,0,0-1.49-.42,3.26,3.26,0,0,0-3.17,3.45,3.35,3.35,0,0,0,.91,2.36,3.1,3.1,0,0,0,4,.27v.5h3V39c-1-.11-1-.34-1-1.2Z"/><path class="cls-3" d="M243.11,35.23l-.58-3.06a.9.9,0,1,1,1.79,0l-.59,3.06Z"/><path class="cls-3" d="M254.32,37.81c.35.82.37,1,1.3,1.2h.14v1H250.9V39c.28,0,1.11,0,1.11-.41a3.55,3.55,0,0,0-.19-.69l-.36-.94h-2.88l-.37.94a1.86,1.86,0,0,0-.16.59c0,.45.73.45,1,.5h.14v1h-4.13V39c1.17-.11,1.43-.82,1.83-1.72l2.59-5.93h2.07ZM251,35.87l-1-2.48-1,2.48Z"/><path class="cls-3" d="M259,37.82a3.34,3.34,0,0,0,.06.77c.1.29.33.33.62.38l.21.05v1h-4V39c.93-.13.91-.33.91-1.2V33.46c0-.21,0-.72-.17-.86a1.63,1.63,0,0,0-.89-.18V31.37a7.6,7.6,0,0,0,2.57-.56H259Z"/><path class="cls-3" d="M264.27,34.66c.87,0,1,.66,1,1.35s-.17,1.24-1,1.24-.93-.61-.93-1.24S263.46,34.66,264.27,34.66Zm-.21,4.27c-.29,0-1.22,0-1.22-.45a.27.27,0,0,1,.26-.29.64.64,0,0,1,.2,0,6,6,0,0,0,1.11.11c1.57,0,3-.82,3-2.44a2.2,2.2,0,0,0-1-1.83.46.46,0,0,1,.42-.17c.25,0,.45.16.71.16a.78.78,0,0,0,.84-.7,1,1,0,0,0-1-.88,2.33,2.33,0,0,0-1.91,1.13,7.72,7.72,0,0,0-1.17-.11c-1.53,0-2.95.87-2.95,2.45a2,2,0,0,0,.91,1.71,1.55,1.55,0,0,0-1.27,1.55,1.35,1.35,0,0,0,.65,1.12,1.23,1.23,0,0,0-.89,1.15c0,1.51,2.3,1.7,3.44,1.7a7.26,7.26,0,0,0,2.63-.42,2.19,2.19,0,0,0,1.36-2,1.51,1.51,0,0,0-.61-1.27,3.19,3.19,0,0,0-1.62-.45Zm1.05,2.12c.31.05.89,0,.89.46,0,.24-.18.36-.4.44a6.19,6.19,0,0,1-1.51.16c-.43,0-1.95-.09-1.95-.71a.78.78,0,0,1,.45-.62Z"/><path class="cls-3" d="M271.53,36.72c0,1.22.45,2.16,1.61,2.16a2.15,2.15,0,0,0,1.75-1.17l1.13.53a3.55,3.55,0,0,1-3.29,1.93,3.34,3.34,0,0,1-3.62-3.38,3.27,3.27,0,0,1,3.51-3.3c1.86,0,3.3,1.1,3.24,3v.27Zm2-1a.9.9,0,0,0-.93-.92,1,1,0,0,0-1.05.92Zm-2.37-3.22,1.29-1.09a2.1,2.1,0,0,1,1.2-.63.94.94,0,0,1,1,.95c0,.66-.66.88-1.23,1l-2,.41Z"/><path class="cls-3" d="M280.1,34.26a3.17,3.17,0,0,1,1.73-.6,1.07,1.07,0,0,1,1.19,1,1,1,0,0,1-1,1c-.6,0-.79-.4-1.13-.4s-.4.08-.4.2v2.37c0,.84,0,1.13.85,1.2h.12v1h-4.27V39c1.07-.08,1.07-.32,1.07-1.2V36.24c0-.85,0-1.1-.94-1.2h-.09V34l2.38-.33h.54Z"/><path class="cls-3" d="M287,37.82c0,.83,0,1.09.91,1.2v1h-4.19V39c1.06-.09,1-.34,1-1.2V36.24c0-.85,0-1.1-.93-1.2h-.09V34l2.38-.33H287ZM287,32a1.31,1.31,0,0,1-1.33,1.25,1.24,1.24,0,0,1-1.23-1.2,1.29,1.29,0,0,1,1.31-1.27A1.22,1.22,0,0,1,287,32Z"/><path class="cls-3" d="M291.45,36.72c0,1.22.45,2.16,1.61,2.16a2.15,2.15,0,0,0,1.75-1.17l1.13.53a3.55,3.55,0,0,1-3.29,1.93A3.34,3.34,0,0,1,289,36.79a3.27,3.27,0,0,1,3.51-3.3c1.86,0,3.31,1.1,3.24,3v.27Zm2-1a.9.9,0,0,0-.93-.92,1,1,0,0,0-1.05.92Z"/><polygon class="cls-3" points="295.5 23.46 294.1 22.16 292.7 23.46 294.1 24.74 295.5 23.46"/><polygon class="cls-3" points="124.58 22.64 123.2 21.42 121.88 22.69 123.2 23.87 124.58 22.64"/><polygon class="cls-3" points="154.86 7.59 153.48 6.37 152.16 7.65 153.48 8.83 154.86 7.59"/><polygon class="cls-3" points="283.16 7.59 281.71 6.25 280.26 7.59 281.71 8.91 283.16 7.59"/><path class="cls-3" d="M163.65,5.25l-2.57,2.32L162,8v7.75h-3v-.08a3.91,3.91,0,0,0-2.37-3.54c-1.54-.75-3.35.12-4.8-1.06l-.43-.35v1.61c0,2.08,4,.19,5.57,1.77a2.26,2.26,0,0,1,.84,1.41l.05.24h-14.9V5.29l-2.57,2.32.87.47V19.43h16.75l0,.28A2,2,0,0,0,158.4,21a1.88,1.88,0,0,0,1.82.56,3.23,3.23,0,0,1-.78-1,2.67,2.67,0,0,1-.34-1.1h4.55Z"/><polygon class="cls-3" points="293.65 12.96 294.38 13.43 294.38 15.79 284.55 15.79 284.39 15.79 283.7 15.79 283.7 11.66 281.13 13.98 281.91 14.45 281.91 15.79 264.51 15.79 264.21 15.79 263.95 15.79 263.95 5.29 261.2 7.65 262.15 8.2 262.15 15.79 253.02 15.79 252.35 14.81 249.31 19.43 264.23 19.43 264.51 19.43 284.37 19.43 284.55 19.43 296.2 19.43 296.2 10.65 293.65 12.96"/><path class="cls-3" d="M259.67,12.17H258c-.8,0-1.56-.95-1.25-1.32.41-.53.95-.23,1.27.08a.74.74,0,0,0,.13-.59.46.46,0,0,0-.26-.37.89.89,0,0,0,.33-.36,1.08,1.08,0,0,0-.16-1.2,1.72,1.72,0,0,1,0,.46c-.2.65-1.55.53-1.81.65-1.47.67-1,2.39.47,2.73l.09,0a1.76,1.76,0,0,0-1.25.85,1.59,1.59,0,0,0-.22,1.43,1.65,1.65,0,0,1,.74-.94,2.48,2.48,0,0,1,1.53-.36h2.09Z"/><polygon class="cls-3" points="95.83 24.13 94.68 23.07 95.83 22.02 98.14 24.13 99.26 23.07 98.14 22.02 95.83 24.13"/><polygon class="cls-3" points="230.32 22.87 228.94 21.65 227.62 22.93 228.94 24.11 230.32 22.87"/><polygon class="cls-3" points="212.38 7.61 210.94 6.27 209.49 7.61 210.94 8.93 212.38 7.61"/><path class="cls-3" d="M237.47,5.25l-2.58,2.32.87.47v7.75h-3v-.08a3.91,3.91,0,0,0-2.38-3.54c-1.53-.75-3.35.12-4.79-1.06l-.43-.35v1.61c0,2.08,4,.19,5.57,1.77a2.31,2.31,0,0,1,.84,1.41l0,.24H213.7c-.06-.2-.09-.2-.22-.55a5.71,5.71,0,0,0-2.2-2.68l-.54-.45A2.19,2.19,0,0,1,210.8,14,2.25,2.25,0,0,1,210,15l.6.2a2.9,2.9,0,0,1,1.49,2.89c-.23,2.1-2.59,3.38-4.9,3.1l-.62-.07.58.17c2.7.81,4.83.48,6.11-1.43a4.85,4.85,0,0,0,.24-.47h18.21l0,.28a1.9,1.9,0,0,0,.43,1.25,1.86,1.86,0,0,0,1.81.56,3.05,3.05,0,0,1-.77-1,2.68,2.68,0,0,1-.35-1.1h4.56Z"/><path class="cls-3" d="M201.89,9h-1.6c-.71,0-1.51-.93-1.21-1.28a.81.81,0,0,1,1.25.1.71.71,0,0,0,.09-.57.74.74,0,0,0-.22-.38.82.82,0,0,0,.31-.33,1,1,0,0,0-.18-1.14,1.55,1.55,0,0,1,0,.43c-.13.65-1.51.51-1.77.63-1.4.63-.93,2.22.48,2.63l.06,0a1.79,1.79,0,0,0-1.19.81,1.63,1.63,0,0,0-.21,1.37,1.71,1.71,0,0,1,.69-.9,2.55,2.55,0,0,1,1.49-.33h2Z"/><path class="cls-3" d="M202.73,10.65l-2.85,2.07,1,.83v2.24H184.69v0a2.34,2.34,0,0,0-.19-.81,7.62,7.62,0,0,0-2.79-3.77l-.43-.38a2.48,2.48,0,0,1,.06,2,2.58,2.58,0,0,1-.77,1.14l.58.19a3,3,0,0,1,1.66,3.11c-.28,2.3-3.41,3.13-5.4,2.11a3.54,3.54,0,0,1-1.7-2l-.22-.47.09.7a4.14,4.14,0,0,0,3.24,3.66A4.45,4.45,0,0,0,184,19.43h18.78Z"/><polygon class="cls-3" points="239.56 19.45 239.56 5.31 242.13 7.63 241.27 8.1 241.27 19.45 239.56 19.45"/><polygon class="cls-3" points="205.41 19.45 205.41 5.31 207.97 7.63 207.12 8.1 207.12 19.45 205.41 19.45"/><polygon class="cls-3" points="165.75 19.45 165.75 5.31 168.32 7.63 167.45 8.1 167.45 19.45 165.75 19.45"/><path class="cls-3" d="M137.55,16.36a7.15,7.15,0,0,0-2.82-4l-.31-.22a2.22,2.22,0,0,1,.07,1.87,2.27,2.27,0,0,1-.78,1.06l.61.2a2.9,2.9,0,0,1,1.48,2.89c-.23,2.1-2.58,3.38-4.9,3.1l-.62-.07.58.17c2.7.81,4.77.44,6.11-1.43A4.92,4.92,0,0,0,137.55,16.36Z"/><path class="cls-3" d="M106.62,19.43h19.95a2,2,0,0,0,.78,1.45,2.3,2.3,0,0,0,1.46.64,3.05,3.05,0,0,1-.77-1,2.68,2.68,0,0,1-.35-1.1h2.48V15.79h-2.65a4.49,4.49,0,0,0-2.38-3.62c-1.53-.75-3.35.12-4.79-1.06l-.43-.35v1.61c0,2.08,4,.19,5.57,1.77a2.85,2.85,0,0,1,.8,1.65H102l-5-5.07-2,2.71a1.63,1.63,0,0,0-.39.84,1.16,1.16,0,0,0,.26.79L98,18l.09.14a1.24,1.24,0,0,1-.3,1.65c-1.1,1.16-3.65.91-4.15-.49-.17-.51.09-1.32.69-1.3.34,0,.43.24.5.45a.77.77,0,0,0,0-.9,1.22,1.22,0,0,0-.73-.57.92.92,0,0,0,.13-.59,1.13,1.13,0,0,0-1.43-.81,1.89,1.89,0,0,1,.47.85c.18.9-.47,1.34-.42,2.3.06,1.67,1.87,2.81,3.73,2.69,2-.12,4-1.93,3.18-3.75l0-.1-2.85-2.83c0-.06-.15-.14-.17-.22a.64.64,0,0,1,.06-.63l.56-.71,4.32,4.35.65,1.91Z"/></g></g></svg>